<svg width="40" height="40" viewBox="0 0 40 40" fill="none" xmlns="http://www.w3.org/2000/svg">
<path d="M20.2409 6.66915C16.7086 6.60204 13.2942 7.9409 10.749 10.3912C8.20377 12.8415 6.73618 16.2025 6.66906 19.7349C6.60195 23.2673 7.94081 26.6816 10.3911 29.2268C12.8414 31.7721 16.2024 33.2396 19.7348 33.3068V23.9836H16.6182V20.4008H19.7348V17.7371C19.6707 17.1037 19.7462 16.4639 19.9561 15.8628C20.1659 15.2618 20.505 14.714 20.9495 14.2582C21.3939 13.8023 21.9328 13.4495 22.5284 13.2244C23.1239 12.9994 23.7616 12.9076 24.3964 12.9556C25.3259 12.9535 26.255 12.998 27.18 13.0888V16.3253H25.2754C23.7704 16.3253 23.4774 17.0445 23.4774 18.0834V20.4008H27.0735L26.6073 23.9836H23.4508V32.8539C26.5547 32.025 29.2545 30.1021 31.0524 27.4396C32.8503 24.777 33.6252 21.5544 33.2343 18.3655C32.8434 15.1766 31.3131 12.2365 28.9253 10.0871C26.5375 7.93767 23.4532 6.72378 20.2409 6.66915Z" fill="white"/>
</svg>
