<svg width="40" height="40" viewBox="0 0 40 40" fill="none" xmlns="http://www.w3.org/2000/svg">
<path d="M14.0741 6.66663C12.1095 6.66663 10.2254 7.44705 8.83624 8.83621C7.44708 10.2254 6.66666 12.1095 6.66666 14.074V25.9259C6.66666 27.8905 7.44708 29.7746 8.83624 31.1637C10.2254 32.5529 12.1095 33.3333 14.0741 33.3333H25.9259C27.8905 33.3333 29.7746 32.5529 31.1637 31.1637C32.5529 29.7746 33.3333 27.8905 33.3333 25.9259V14.074C33.3333 12.1095 32.5529 10.2254 31.1637 8.83621C29.7746 7.44705 27.8905 6.66663 25.9259 6.66663H14.0741ZM28.8889 9.62959C29.1819 9.62959 29.4683 9.71648 29.7119 9.87926C29.9556 10.0421 30.1455 10.2734 30.2576 10.5441C30.3697 10.8148 30.3991 11.1127 30.3419 11.4001C30.2847 11.6875 30.1436 11.9514 29.9364 12.1586C29.7293 12.3658 29.4653 12.5069 29.1779 12.5641C28.8905 12.6212 28.5926 12.5919 28.3219 12.4798C28.0512 12.3677 27.8199 12.1778 27.6571 11.9341C27.4943 11.6905 27.4074 11.4041 27.4074 11.1111C27.4074 10.7182 27.5635 10.3413 27.8413 10.0635C28.1191 9.78567 28.496 9.62959 28.8889 9.62959V9.62959ZM20 12.5926C21.465 12.5926 22.8972 13.027 24.1153 13.8409C25.3335 14.6549 26.2829 15.8117 26.8435 17.1653C27.4042 18.5188 27.5509 20.0082 27.2651 21.4451C26.9793 22.882 26.2738 24.2018 25.2378 25.2378C24.2019 26.2737 22.882 26.9792 21.4451 27.265C20.0082 27.5509 18.5188 27.4042 17.1653 26.8435C15.8118 26.2829 14.6549 25.3334 13.841 24.1153C13.027 22.8972 12.5926 21.465 12.5926 20C12.5926 18.0354 13.373 16.1513 14.7622 14.7621C16.1513 13.373 18.0354 12.5926 20 12.5926V12.5926ZM20 15.5555C19.121 15.5555 18.2617 15.8162 17.5308 16.3045C16.7999 16.7929 16.2302 17.487 15.8939 18.2991C15.5575 19.1113 15.4695 20.0049 15.6409 20.867C15.8124 21.7292 16.2357 22.5211 16.8573 23.1427C17.4789 23.7642 18.2708 24.1875 19.1329 24.359C19.9951 24.5305 20.8887 24.4425 21.7008 24.1061C22.5129 23.7697 23.207 23.2 23.6954 22.4692C24.1838 21.7383 24.4444 20.879 24.4444 20C24.4444 18.8212 23.9762 17.6908 23.1427 16.8573C22.3092 16.0238 21.1787 15.5555 20 15.5555Z" fill="white"/>
</svg>
