<svg width="40" height="40" viewBox="0 0 40 40" fill="none" xmlns="http://www.w3.org/2000/svg">
<path d="M29.4139 10.5387C27.1212 8.26407 24.0815 6.8979 20.8583 6.69352C17.6352 6.48913 14.4473 7.46041 11.8856 9.42727C9.32399 11.3941 7.56243 14.2231 6.92757 17.3897C6.2927 20.5563 6.8276 23.8457 8.43307 26.6481L6.69802 32.3871C6.66015 32.5124 6.65651 32.6456 6.68746 32.7729C6.71842 32.9001 6.78285 33.0168 6.87408 33.1107C6.96531 33.2047 7.08001 33.2725 7.20629 33.3072C7.33256 33.3419 7.46582 33.3422 7.59224 33.308L13.5982 31.6931C15.55 32.7617 17.7394 33.3216 19.9645 33.3213C22.7059 33.3542 25.3893 32.531 27.6406 30.9663C29.8919 29.4017 31.5989 27.1736 32.5236 24.5927C33.3895 22.1961 33.5569 19.6029 33.0064 17.1148C32.4558 14.6268 31.21 12.3463 29.4139 10.5387ZM26.5043 24.7128C26.2627 25.1225 25.9365 25.476 25.5476 25.7499C25.1587 26.0237 24.7159 26.2116 24.2488 26.301C23.6482 26.301 23.0743 26.5813 20.2448 25.4736C17.9357 24.3584 15.9881 22.6144 14.6259 20.4419C13.8533 19.4496 13.3892 18.2522 13.2912 16.9985C13.281 16.4804 13.379 15.9659 13.5789 15.4879C13.7788 15.0099 14.0763 14.5789 14.4524 14.2224C14.5648 14.0954 14.7023 13.9931 14.8562 13.9219C15.0101 13.8507 15.1771 13.8121 15.3466 13.8086H15.9605C16.2008 13.8086 16.4677 13.8086 16.7213 14.3825C16.9749 14.9565 17.6556 16.6915 17.7356 16.8517C17.7847 16.9418 17.8104 17.0427 17.8104 17.1453C17.8104 17.2479 17.7847 17.3488 17.7356 17.4389C17.6454 17.6375 17.5335 17.8255 17.402 17.9995C17.2285 18.1863 17.055 18.4266 16.8948 18.5867C16.7346 18.7469 16.5611 18.9337 16.748 19.254C17.2597 20.1111 17.8936 20.889 18.6299 21.563C19.4167 22.2656 20.32 22.8256 21.2992 23.218C21.6328 23.3915 21.8197 23.3648 22.0199 23.1379C22.2201 22.911 22.8474 22.1636 23.0743 21.8032C23.3012 21.4429 23.5147 21.523 23.8217 21.6431C24.1286 21.7632 25.7703 22.5507 26.1039 22.7242C26.4376 22.8977 26.6511 22.9644 26.7312 23.1112C26.8231 23.6557 26.7438 24.2153 26.5043 24.7128Z" fill="white"/>
</svg>
