<svg width="45" height="60" viewBox="0 0 45 60" fill="none" xmlns="http://www.w3.org/2000/svg">
<path d="M30.9518 57.9427C35.9697 57.0144 41.2719 53.1004 43.4965 48.7432C46.0054 43.7253 45.3531 39.2594 41.6984 36.5163C41.1556 36.0933 40.4956 35.848 39.8084 35.8138C40.2014 35.1782 40.5945 34.4757 40.9875 33.6896C43.4965 28.5881 43.4965 18.3265 43.4965 10.0888C43.5744 8.77305 43.3785 7.45544 42.921 6.21931C42.4635 4.98318 41.7544 3.85543 40.8386 2.90744C39.9228 1.95944 38.8203 1.21182 37.6007 0.71186C36.3812 0.211896 35.0711 -0.0295165 33.7534 0.002877L11.4071 0.00287603C10.0938 -0.0244092 8.78893 0.219765 7.57431 0.720128C6.35968 1.22049 5.26145 1.96627 4.34839 2.91073C3.43534 3.85519 2.72715 4.978 2.26813 6.20884C1.80911 7.43968 1.60914 8.75203 1.68081 10.0637C1.68081 18.3014 1.68081 28.563 4.18975 33.6645C4.57445 34.4422 4.97586 35.1531 5.36893 35.7887C4.68164 35.8229 4.02167 36.0682 3.4789 36.4912C2.44086 37.2314 1.59793 38.2124 1.02254 39.3501C0.447146 40.4878 0.156486 41.7481 0.175451 43.0228C0.231711 45.0119 0.746895 46.961 1.68081 48.7181C3.87195 53.1004 9.20763 57.0227 14.2255 57.9176C14.4002 58.5101 14.7616 59.0305 15.2558 59.4012C15.7501 59.7719 16.3508 59.9731 16.9686 59.9749L28.2003 59.9749C28.816 59.9752 29.4156 59.778 29.9109 59.4121C30.4061 59.0463 30.771 58.5313 30.9518 57.9427Z" fill="#595959"/>
<g style="mix-blend-mode:hard-light" opacity="0.8">
<path d="M30.9518 57.9427C35.9697 57.0144 41.2719 53.0921 43.4965 48.7433C46.0054 43.7254 45.3531 39.2595 41.6984 36.5164C41.3284 36.2196 40.8974 36.0081 40.4363 35.8968C39.9752 35.7855 39.4953 35.7771 39.0306 35.8724C36.7056 36.3575 34.849 39.2177 34.4727 39.8616C33.1095 40.4052 26.7034 40.5056 22.6054 40.4387C18.5409 40.5056 12.1431 40.4387 10.7716 39.8616C10.3869 39.2177 8.53859 36.3575 6.21364 35.8724C5.74896 35.7771 5.26898 35.7855 4.80788 35.8968C4.34677 36.0081 3.91586 36.2196 3.5458 36.5164C2.50776 37.2566 1.66488 38.2376 1.08949 39.3752C0.514097 40.5129 0.223438 41.7732 0.242403 43.048C0.298663 45.0371 0.813846 46.9862 1.74776 48.7433C3.9389 53.1256 9.27458 57.0479 14.2925 57.9427C14.4672 58.5353 14.8285 59.0557 15.3228 59.4263C15.817 59.797 16.4177 59.9983 17.0355 60.0001L28.2004 60.0001C28.8193 59.9987 29.4212 59.7978 29.9169 59.4272C30.4125 59.0566 30.7755 58.536 30.9518 57.9427V57.9427Z" fill="url(#paint0_linear_884_4221)"/>
</g>
<g style="mix-blend-mode:multiply" opacity="0.4">
<path d="M30.9518 57.9427C35.9697 57.0144 41.2719 53.1004 43.4965 48.7432C46.0054 43.7253 45.3531 39.2594 41.6984 36.5163C41.1556 36.0933 40.4956 35.848 39.8084 35.8138C40.2014 35.1782 40.5945 34.4757 40.9875 33.6896C43.4965 28.5881 43.4965 18.3265 43.4965 10.0888C43.5744 8.77305 43.3785 7.45544 42.921 6.21931C42.4635 4.98318 41.7544 3.85543 40.8386 2.90744C39.9228 1.95944 38.8203 1.21182 37.6007 0.71186C36.3812 0.211896 35.0711 -0.0295165 33.7534 0.002877L11.4071 0.00287603C10.0938 -0.0244092 8.78893 0.219765 7.57431 0.720128C6.35968 1.22049 5.26145 1.96627 4.34839 2.91073C3.43534 3.85519 2.72715 4.978 2.26813 6.20884C1.80911 7.43968 1.60914 8.75203 1.68081 10.0637C1.68081 18.3014 1.68081 28.563 4.18975 33.6645C4.57445 34.4422 4.97586 35.1531 5.36893 35.7887C4.68164 35.8229 4.02167 36.0682 3.4789 36.4912C2.44086 37.2314 1.59793 38.2124 1.02254 39.3501C0.447146 40.4878 0.156486 41.7481 0.175451 43.0228C0.231711 45.0119 0.746895 46.961 1.68081 48.7181C3.87195 53.1004 9.20763 57.0227 14.2255 57.9176C14.4002 58.5101 14.7616 59.0305 15.2558 59.4012C15.7501 59.7719 16.3508 59.9731 16.9686 59.9749L28.2003 59.9749C28.816 59.9752 29.4156 59.778 29.9109 59.4121C30.4061 59.0463 30.771 58.5313 30.9518 57.9427ZM41.1548 37.1603C44.4582 39.6692 45.0186 43.717 42.702 48.3502C40.6614 52.423 35.7355 56.0861 31.0772 57.0646L31.0772 55.6428C35.0748 55.2832 35.1333 51.1183 35.1333 51.0765L35.1333 40.2881C35.4595 39.7529 37.1739 37.085 39.156 36.6669C39.5049 36.5957 39.8653 36.6031 40.211 36.6884C40.5567 36.7737 40.8791 36.9349 41.1548 37.1603V37.1603ZM14.0917 54.4636L14.0917 54.8065C10.9221 54.4636 10.8635 51.2187 10.8635 51.0765L10.8635 48.4004L34.297 48.4004L34.297 49.7886L10.8803 49.7886L10.8803 50.6249L34.297 50.6249L34.297 51.0682C34.297 51.2104 34.2385 54.4636 31.0772 54.7981L31.0772 54.4887C31.075 53.7264 30.7712 52.9959 30.2321 52.4569C29.6931 51.9178 28.9626 51.614 28.2003 51.6118L16.9686 51.6118C16.21 51.6117 15.482 51.9114 14.9431 52.4455C14.4043 52.9796 14.0983 53.705 14.0917 54.4636V54.4636ZM10.3785 39.2845L10.3785 36.5331L34.8072 36.5331L34.8072 39.2845L34.4559 39.8365C33.0927 40.3801 26.6866 40.4804 22.5886 40.4135C18.5242 40.4804 12.1263 40.4135 10.7548 39.8365C10.6628 39.7528 10.5457 39.527 10.3785 39.2845ZM8.70586 14.2537C9.06328 13.5043 9.60103 12.8553 10.271 12.3648C10.9409 11.8744 11.7221 11.5579 12.5445 11.4436L32.6244 11.4436C33.4512 11.554 34.2375 11.8687 34.9122 12.3593C35.5868 12.8499 36.1285 13.501 36.4882 14.2537C36.0784 16.6873 35.7104 19.6311 35.426 23.2022L9.79306 23.2022C9.47526 19.6311 9.10728 16.6873 8.69749 14.2537L8.70586 14.2537ZM35.3424 24.0385C35.0915 27.3838 34.9076 31.2392 34.8323 35.6968L10.345 35.6968C10.2697 31.2392 10.0941 27.3336 9.84323 24.0385L35.3424 24.0385ZM22.5886 41.2498C23.5755 41.2498 31.6208 41.3837 34.297 40.7397L34.297 43.0981L10.8803 43.0981L10.8803 40.7648C13.5481 41.4255 21.5934 41.2666 22.5886 41.2498ZM34.297 43.9344L34.297 45.331L10.8803 45.331L10.8803 43.9344L34.297 43.9344ZM34.297 46.1674L34.297 47.5557L10.8803 47.5557L10.8803 46.1674L34.297 46.1674ZM40.1512 33.3216C39.7057 34.2367 39.1971 35.1197 38.6291 35.9643C37.4278 36.4177 36.3746 37.1932 35.5849 38.2057C35.8107 11.5106 39.6076 5.19637 40.6028 3.99208C41.9891 5.70673 42.7186 7.85953 42.6602 10.0637C42.6602 18.2178 42.6602 28.3623 40.1512 33.2965L40.1512 33.3216ZM6.0882 2.46164C7.63176 1.3771 9.47909 0.809145 11.3653 0.839189L33.7534 0.83919C35.6413 0.815898 37.4892 1.38315 39.0389 2.46164C39.4172 2.73607 39.7724 3.04094 40.101 3.37322C39.4069 4.14263 37.9099 6.49267 36.6805 13.0661C36.2195 12.3924 35.6184 11.8261 34.9183 11.4061C34.2183 10.9861 33.4358 10.7222 32.6244 10.6324L12.5529 10.6324C11.7448 10.7261 10.9662 10.9917 10.2695 11.4115C9.57269 11.8313 8.97392 12.3955 8.51347 13.0661C7.28409 6.50103 5.79549 4.15099 5.10135 3.37322C5.41832 3.03367 5.76232 2.72042 6.13 2.43655L6.0882 2.46164ZM4.92571 33.3216C2.45858 28.3874 2.45857 18.268 2.45857 10.0888C2.3752 7.88444 3.08098 5.72262 4.449 3.99208C5.47767 5.20474 9.27453 11.5189 9.46688 38.2057C8.67721 37.1932 7.62397 36.4177 6.42269 35.9643C5.88025 35.1076 5.39417 34.2165 4.96751 33.2965L4.92571 33.3216ZM2.41677 48.3752C0.100177 43.7421 0.660487 39.6609 3.96393 37.1854C4.23963 36.96 4.56203 36.7988 4.90774 36.7135C5.25345 36.6281 5.61382 36.6208 5.96273 36.692C7.94479 37.1018 9.65923 39.7779 9.98539 40.3132L9.98539 51.0431C9.98539 51.0431 10.0439 55.2247 14.0499 55.6094L14.0499 57.0646C9.49195 56.0944 4.46572 52.3645 2.45857 48.3502L2.41677 48.3752ZM16.9268 59.1888C16.3848 59.1866 15.8658 58.9697 15.4833 58.5857C15.1009 58.2017 14.8862 57.6818 14.8862 57.1398L14.8862 54.4887C14.8862 53.9475 15.1012 53.4285 15.4839 53.0458C15.8665 52.6631 16.3856 52.4481 16.9268 52.4481L28.2003 52.4481C28.7415 52.4481 29.2606 52.6631 29.6432 53.0458C30.0259 53.4285 30.2409 53.9475 30.2409 54.4887L30.2409 57.1398C30.2409 57.6818 30.0262 58.2017 29.6438 58.5857C29.2613 58.9697 28.7423 59.1866 28.2003 59.1888L16.9268 59.1888Z" fill="#151C28"/>
</g>
<path d="M33.0768 25.2882C33.0821 25.2743 33.0864 25.2605 33.0907 25.2477C33.1131 25.1815 33.1365 25.1143 33.1579 25.0471C33.1643 25.0279 33.1696 25.0087 33.1749 24.9895C33.1952 24.9287 33.2144 24.8669 33.2325 24.805L33.2517 24.7357C33.2688 24.677 33.2859 24.6183 33.3019 24.5597C33.3083 24.533 33.3147 24.5074 33.3221 24.4807L33.3648 24.3133C33.3723 24.2823 33.3787 24.2525 33.3861 24.2215C33.3979 24.1693 33.4107 24.1149 33.4224 24.0647C33.4299 24.0306 33.4363 23.9965 33.4437 23.9581C33.4512 23.9197 33.464 23.8599 33.4736 23.8098C33.4832 23.7597 33.4875 23.7351 33.4939 23.7031C33.5003 23.6711 33.5109 23.6103 33.5184 23.5634C33.5259 23.5165 33.5323 23.4813 33.5387 23.4407C33.5451 23.4002 33.5525 23.3533 33.5579 23.3095C33.5632 23.2658 33.5707 23.221 33.576 23.1762L33.592 23.0535C33.592 23.0066 33.6027 22.9586 33.6069 22.9106C33.6112 22.8626 33.6155 22.8349 33.6187 22.7975C33.6219 22.7602 33.6283 22.6909 33.6325 22.6418C33.6325 22.6077 33.6325 22.5746 33.64 22.5351C33.64 22.4786 33.6475 22.4285 33.6507 22.3677C33.6507 22.3367 33.6507 22.3069 33.6507 22.2759C33.6507 22.2162 33.656 22.1554 33.6571 22.0957C33.6571 22.069 33.6571 22.0434 33.6571 22.0167C33.6571 21.9517 33.6571 21.8866 33.6571 21.8205V21.6829C33.5746 18.9105 32.4155 16.2793 30.4255 14.3473C28.4356 12.4152 25.7714 11.3342 22.9978 11.3335C20.2242 11.3328 17.5594 12.4125 15.5686 14.3435C13.5777 16.2746 12.4172 18.9052 12.3333 21.6775H12.3333V21.7842C12.3333 21.8066 12.3333 21.8301 12.3333 21.8525C12.3333 21.9236 12.3333 21.9919 12.3333 22.0573C12.3333 22.0946 12.3333 22.1319 12.3333 22.1639C12.3333 22.2279 12.3333 22.2919 12.3419 22.3549C12.3419 22.3954 12.3419 22.4349 12.3493 22.4743C12.3493 22.5351 12.3568 22.597 12.3621 22.6578C12.3621 22.6983 12.3696 22.7399 12.3739 22.7805C12.3739 22.8402 12.3845 22.8989 12.3909 22.9586C12.3909 23.0002 12.4005 23.0418 12.4059 23.0834C12.4112 23.125 12.4197 23.1997 12.4283 23.2573C12.4336 23.2989 12.4411 23.3405 12.4464 23.3831C12.4517 23.4258 12.4635 23.4962 12.4731 23.5527C12.4827 23.6093 12.4891 23.6434 12.4976 23.6882C12.5061 23.733 12.5157 23.7949 12.5264 23.8461C12.5456 23.9431 12.5659 24.0391 12.5872 24.1351C13.0856 26.3572 14.2821 28.3614 16.0016 29.8545C17.721 31.3476 19.8732 32.2512 22.1432 32.4331C24.4132 32.615 26.6818 32.0657 28.6171 30.8655C30.5524 29.6653 32.0527 27.8772 32.8987 25.7629C32.9307 25.6839 32.9605 25.6061 32.9904 25.5261C32.9904 25.5197 32.9957 25.5133 32.9979 25.5079C33.0267 25.4343 33.0512 25.3618 33.0768 25.2882ZM16.9925 15.7234C18.093 14.6331 19.4695 13.8629 20.9744 13.4954C22.4793 13.128 24.0558 13.1771 25.5349 13.6375C27.014 14.098 28.3399 14.9524 29.3703 16.1091C30.4007 17.2658 31.0969 18.6811 31.384 20.2034C29.1152 19.0578 26.1915 18.3709 23 18.3709C19.8085 18.3709 16.8848 19.0578 14.616 20.1981C14.9332 18.499 15.7624 16.9376 16.9925 15.7234V15.7234ZM23 23.3842C22.6836 23.3842 22.3742 23.2904 22.1111 23.1146C21.848 22.9388 21.6429 22.6889 21.5218 22.3965C21.4007 22.1041 21.369 21.7824 21.4308 21.4721C21.4925 21.1617 21.6449 20.8766 21.8686 20.6528C22.0924 20.4291 22.3775 20.2767 22.6879 20.215C22.9982 20.1532 23.3199 20.1849 23.6123 20.306C23.9047 20.4271 24.1546 20.6322 24.3304 20.8953C24.5062 21.1584 24.6 21.4678 24.6 21.7842C24.6 22.2086 24.4314 22.6155 24.1314 22.9156C23.8313 23.2156 23.4244 23.3842 23 23.3842ZM15.0757 24.9501C15.3526 24.7178 15.6484 24.5091 15.96 24.3261C16.592 23.9545 17.2617 23.6513 17.9579 23.4215C18.2128 23.3346 18.4912 23.3473 18.7371 23.4571C18.983 23.5669 19.1783 23.7657 19.2837 24.0135C19.7573 25.1613 20.232 27.0109 20.3195 29.8909C19.343 29.5686 18.4335 29.0708 17.6357 28.4221C16.5006 27.5017 15.6194 26.3066 15.0757 24.9501ZM27.8309 28.8242C27.1685 29.2795 26.4448 29.6386 25.6816 29.8909C25.7691 27.0109 26.2427 25.1645 26.7205 24.0178C26.826 23.77 27.0213 23.5712 27.2672 23.4614C27.5131 23.3516 27.7915 23.3389 28.0464 23.4258C28.7409 23.6545 29.4092 23.9563 30.04 24.3261C30.3501 24.5102 30.6448 24.7193 30.9211 24.9511L30.9147 24.9671C30.29 26.529 29.217 27.8711 27.8309 28.8242V28.8242Z" fill="white"/>
<defs>
<linearGradient id="paint0_linear_884_4221" x1="22.4373" y1="59.7665" x2="22.4373" y2="35.5448" gradientUnits="userSpaceOnUse">
<stop stop-color="#7D7D7D"/>
<stop offset="1" stop-color="#4F4F4F"/>
</linearGradient>
</defs>
</svg>
