  <svg width="20" height="27" viewBox="0 0 20 27" fill="none" xmlns="http://www.w3.org/2000/svg">
            <path d="M13.9124 25.3004C16.0868 24.8981 18.3845 23.2021 19.3485 21.3139C20.4357 19.1395 20.153 17.2043 18.5693 16.0156C18.3341 15.8323 18.0481 15.726 17.7503 15.7112C17.9206 15.4358 18.0909 15.1314 18.2613 14.7907C19.3485 12.5801 19.3485 8.13338 19.3485 4.56371C19.3822 3.99355 19.2973 3.42258 19.0991 2.88693C18.9008 2.35127 18.5935 1.86258 18.1967 1.45178C17.7999 1.04099 17.3221 0.717018 16.7936 0.500367C16.2652 0.283716 15.6975 0.179104 15.1265 0.193141L5.44309 0.193141C4.87397 0.181317 4.30853 0.287126 3.7822 0.50395C3.25586 0.720774 2.77996 1.04395 2.3843 1.45321C1.98865 1.86248 1.68176 2.34903 1.48285 2.88239C1.28394 3.41576 1.19729 3.98444 1.22835 4.55284C1.22835 8.1225 1.22835 12.5692 2.31555 14.7798C2.48226 15.1169 2.6562 15.4249 2.82653 15.7003C2.52871 15.7152 2.24272 15.8214 2.00752 16.0047C1.55771 16.3255 1.19243 16.7506 0.943097 17.2436C0.693763 17.7366 0.567809 18.2827 0.576028 18.8351C0.600407 19.697 0.823653 20.5417 1.22835 21.3031C2.17784 23.2021 4.48997 24.9017 6.66438 25.2895C6.74009 25.5463 6.89669 25.7718 7.11086 25.9324C7.32503 26.093 7.58536 26.1802 7.85307 26.181L12.7201 26.181C12.9869 26.1811 13.2468 26.0957 13.4614 25.9371C13.676 25.7786 13.8341 25.5554 13.9124 25.3004Z" fill="#246185" />

            <g style="mix-blend-mode:hard-light" opacity="0.8">
                <path d="M13.9125 25.3003C16.0869 24.898 18.3845 23.1984 19.3485 21.3139C20.4357 19.1395 20.153 17.2042 18.5693 16.0156C18.409 15.887 18.2222 15.7953 18.0224 15.7471C17.8226 15.6988 17.6146 15.6952 17.4132 15.7365C16.4058 15.9467 15.6013 17.1861 15.4382 17.4652C14.8475 17.7007 12.0715 17.7442 10.2957 17.7152C8.53441 17.7442 5.76202 17.7152 5.16768 17.4652C5.00098 17.1861 4.20006 15.9467 3.19258 15.7365C2.99122 15.6952 2.78323 15.6988 2.58342 15.7471C2.38361 15.7953 2.19688 15.887 2.03652 16.0156C1.5867 16.3363 1.22145 16.7614 0.972116 17.2544C0.72278 17.7474 0.596828 18.2935 0.605047 18.8459C0.629427 19.7079 0.852672 20.5525 1.25737 21.3139C2.20686 23.2129 4.51899 24.9125 6.6934 25.3003C6.76911 25.5571 6.92571 25.7826 7.13988 25.9432C7.35405 26.1038 7.61435 26.191 7.88207 26.1918L12.7202 26.1918C12.9883 26.1912 13.2492 26.1042 13.464 25.9436C13.6788 25.783 13.836 25.5574 13.9125 25.3003Z" fill="url(#paint0_linear_884_4213)" />
            </g>

            <g style="mix-blend-mode:multiply" opacity="0.4">
                <path d="M13.9124 25.3004C16.0868 24.8981 18.3845 23.2021 19.3485 21.3139C20.4357 19.1395 20.153 17.2043 18.5693 16.0156C18.3341 15.8323 18.0481 15.726 17.7503 15.7112C17.9206 15.4358 18.0909 15.1314 18.2613 14.7907C19.3485 12.5801 19.3485 8.13338 19.3485 4.56371C19.3822 3.99355 19.2973 3.42258 19.0991 2.88693C18.9008 2.35127 18.5935 1.86258 18.1967 1.45178C17.7999 1.04099 17.3221 0.717018 16.7936 0.500367C16.2652 0.283716 15.6975 0.179104 15.1265 0.193141L5.44309 0.193141C4.87397 0.181317 4.30853 0.287126 3.7822 0.50395C3.25586 0.720774 2.77996 1.04395 2.3843 1.45321C1.98865 1.86248 1.68176 2.34903 1.48285 2.88239C1.28394 3.41576 1.19729 3.98444 1.22835 4.55284C1.22835 8.1225 1.22835 12.5692 2.31555 14.7798C2.48226 15.1169 2.6562 15.4249 2.82653 15.7003C2.52871 15.7152 2.24272 15.8214 2.00752 16.0047C1.55771 16.3255 1.19243 16.7506 0.943097 17.2436C0.693763 17.7366 0.567809 18.2827 0.576028 18.8351C0.600407 19.697 0.823653 20.5417 1.22835 21.3031C2.17784 23.2021 4.48997 24.9017 6.66438 25.2895C6.74009 25.5463 6.89669 25.7718 7.11086 25.9324C7.32503 26.093 7.58536 26.1802 7.85307 26.181L12.7201 26.181C12.9869 26.1811 13.2468 26.0957 13.4614 25.9371C13.676 25.7786 13.8341 25.5554 13.9124 25.3004ZM18.3337 16.2947C19.7652 17.3819 20.008 19.1359 19.0042 21.1436C18.1199 22.9085 15.9854 24.4958 13.9668 24.9199L13.9668 24.3038C15.6991 24.1479 15.7244 22.3432 15.7244 22.325L15.7244 17.6501C15.8658 17.4181 16.6087 16.2621 17.4676 16.0809C17.6188 16.05 17.7749 16.0532 17.9248 16.0902C18.0746 16.1272 18.2143 16.197 18.3337 16.2947ZM6.60641 23.7928L6.60641 23.9414C5.2329 23.7928 5.20752 22.3867 5.20752 22.325L5.20752 21.1654L15.362 21.1654L15.362 21.767L5.21477 21.767L5.21477 22.1294L15.362 22.1294L15.362 22.3214C15.362 22.383 15.3367 23.7928 13.9668 23.9377L13.9668 23.8037C13.9658 23.4733 13.8342 23.1568 13.6006 22.9232C13.367 22.6896 13.0505 22.5579 12.7201 22.557L7.85307 22.557C7.52431 22.557 7.20884 22.6868 6.97536 22.9183C6.74187 23.1497 6.60927 23.464 6.60641 23.7928ZM4.99734 17.2152L4.99734 16.0229L15.5831 16.0229L15.5831 17.2152L15.4309 17.4544C14.8402 17.6899 12.0642 17.7334 10.2884 17.7044C8.52713 17.7334 5.75474 17.7044 5.1604 17.4544C5.12054 17.4181 5.06982 17.3203 4.99734 17.2152ZM4.27254 6.36848C4.42742 6.04374 4.66044 5.76251 4.95076 5.54999C5.24107 5.33747 5.57959 5.20031 5.93595 5.1508L14.6372 5.1508C14.9955 5.19861 15.3363 5.33498 15.6286 5.54759C15.9209 5.7602 16.1557 6.04234 16.3115 6.36848C16.134 7.42307 15.9745 8.69872 15.8513 10.2462L4.74365 10.2462C4.60594 8.69872 4.44649 7.42307 4.26891 6.36848L4.27254 6.36848ZM15.815 10.6086C15.7063 12.0582 15.6266 13.7289 15.594 15.6605L4.98283 15.6605C4.95021 13.7289 4.87412 12.0365 4.7654 10.6086L15.815 10.6086ZM10.2884 18.0668C10.716 18.0668 14.2024 18.1248 15.362 17.8458L15.362 18.8677L5.21477 18.8677L5.21477 17.8566C6.37084 18.1429 9.85715 18.0741 10.2884 18.0668ZM15.362 19.2301L15.362 19.8353L5.21477 19.8353L5.21477 19.2301L15.362 19.2301ZM15.362 20.1977L15.362 20.7993L5.21477 20.7993L5.21477 20.1977L15.362 20.1977ZM17.8989 14.6312C17.7058 15.0278 17.4854 15.4104 17.2393 15.7764C16.7187 15.9729 16.2623 16.309 15.9201 16.7477C16.018 5.17981 17.6633 2.44366 18.0945 1.9218C18.6953 2.66481 19.0114 3.59769 18.9861 4.55284C18.9861 8.08626 18.9861 12.4822 17.8989 14.6204L17.8989 14.6312ZM3.13822 1.2586C3.80709 0.78864 4.6076 0.542524 5.42497 0.555543L15.1265 0.555544C15.9445 0.54545 16.7453 0.791261 17.4169 1.25861C17.5808 1.37752 17.7347 1.50964 17.8771 1.65362C17.5763 1.98703 16.9276 3.00538 16.3949 5.85386C16.1951 5.56191 15.9346 5.31654 15.6313 5.13453C15.3279 4.95252 14.9889 4.83816 14.6372 4.79927L5.93958 4.79927C5.58943 4.83985 5.25203 4.95498 4.95009 5.13689C4.64816 5.3188 4.3887 5.56327 4.18917 5.85386C3.65644 3.00901 3.01138 1.99066 2.71058 1.65362C2.84794 1.50648 2.99701 1.37074 3.15633 1.24773L3.13822 1.2586ZM2.63447 14.6312C1.56538 12.4931 1.56538 8.10801 1.56538 4.56371C1.52925 3.60848 1.83509 2.67169 2.4279 1.9218C2.87366 2.44728 4.51896 5.18343 4.60231 16.7477C4.26012 16.309 3.80372 15.9729 3.28316 15.7764C3.04811 15.4052 2.83747 15.019 2.65259 14.6204L2.63447 14.6312ZM1.54726 21.1545C0.543408 19.1468 0.78621 17.3783 2.2177 16.3055C2.33717 16.2079 2.47688 16.138 2.62669 16.1011C2.77649 16.0641 2.93265 16.0609 3.08385 16.0917C3.94274 16.2693 4.68566 17.429 4.827 17.6609L4.827 22.3106C4.827 22.3106 4.85236 24.1226 6.58827 24.2893L6.58827 24.9199C4.61318 24.4995 2.43515 22.8832 1.56538 21.1436L1.54726 21.1545ZM7.83493 25.8404C7.60008 25.8394 7.37517 25.7454 7.20945 25.579C7.04372 25.4126 6.95067 25.1873 6.95067 24.9525L6.95067 23.8037C6.95067 23.5691 7.04384 23.3442 7.20967 23.1784C7.3755 23.0126 7.60041 22.9194 7.83493 22.9194L12.7201 22.9194C12.9547 22.9194 13.1796 23.0126 13.3454 23.1784C13.5112 23.3442 13.6044 23.5691 13.6044 23.8037L13.6044 24.9525C13.6044 25.1873 13.5113 25.4126 13.3456 25.579C13.1799 25.7454 12.955 25.8394 12.7201 25.8404L7.83493 25.8404Z" fill="#151C28" />
            </g>
            <defs>
                <linearGradient id="paint0_linear_884_4213" x1="10.2228" y1="26.0906" x2="10.2228" y2="15.5945" gradientUnits="userSpaceOnUse">
                    <stop stop-color="#7D7D7D" />
                    <stop offset="1" stop-color="#4F4F4F" />
                </linearGradient>
            </defs>
        </svg>